name rise49.8558peak67.6521fall70.3087.mot
datacolumns 19
datarows 29
range 21.59158400000000 21.63825400000000
endheader
time	ground_force1_vx	ground_force1_vy	ground_force1_vz	ground_force1_px	ground_force1_py	ground_force1_pz	ground_force2_vx	ground_force2_vy	ground_force2_vz	ground_force2_px	ground_force2_py	ground_force2_pz	ground_torque1_x	ground_torque1_y	ground_torque1_z	ground_torque2_x	ground_torque2_y	ground_torque2_z	
21.59158400000000	-40.22654300000000	813.67967399999998	62.64252800000000	0.15161700000000	0.00000000000000	0.12216900000000	-2.51259900000000	21.12350300000000	3.47421600000000	0.00000000000000	0.00000000000000	0.00000000000000	0.00000000000000	28.04014400000000	0.00000000000000	0.00000000000000	1.42140600000000	0.00000000000000	
21.59324900000000	-40.38687300000000	811.67682200000002	62.63047700000000	0.15084000000000	0.00000000000000	0.12211100000000	-3.03737600000000	27.06736800000000	4.27989900000000	0.32637400000000	0.00000000000000	-0.08148800000000	0.00000000000000	27.93072600000000	0.00000000000000	0.00000000000000	2.90748500000000	0.00000000000000	
21.59491400000000	-40.55473500000000	809.53671599999996	62.59381000000000	0.15007100000000	0.00000000000000	0.12205000000000	-3.54554400000000	33.42686000000000	5.09245200000000	0.33434200000000	0.00000000000000	-0.08215900000000	0.00000000000000	27.81692100000000	0.00000000000000	0.00000000000000	3.51186700000000	0.00000000000000	
21.59658200000000	-40.73056500000000	807.25956299999996	62.53192300000000	0.14930900000000	0.00000000000000	0.12198500000000	-4.01646200000000	40.08084200000000	5.88647500000000	0.34164100000000	0.00000000000000	-0.08273900000000	0.00000000000000	27.69888400000000	0.00000000000000	0.00000000000000	4.11732000000000	0.00000000000000	
21.59824700000000	-40.91477800000000	804.84569599999998	62.44425600000000	0.14855700000000	0.00000000000000	0.12191700000000	-4.43121300000000	46.90975600000000	6.63833800000000	0.34837800000000	0.00000000000000	-0.08324400000000	0.00000000000000	27.57678100000000	0.00000000000000	0.00000000000000	4.70668400000000	0.00000000000000	
21.59991400000000	-41.10777100000000	802.29557199999999	62.33029900000000	0.14781500000000	0.00000000000000	0.12184500000000	-4.77377700000000	53.80469700000000	7.32775200000000	0.35463500000000	0.00000000000000	-0.08368800000000	0.00000000000000	27.45078100000000	0.00000000000000	0.00000000000000	5.26468700000000	0.00000000000000	
21.60158800000000	-41.30991400000000	799.60975599999995	62.18959000000000	0.14708400000000	0.00000000000000	0.12176800000000	-5.03184500000000	60.67451100000000	7.93888700000000	0.36047800000000	0.00000000000000	-0.08408100000000	0.00000000000000	27.32106100000000	0.00000000000000	0.00000000000000	5.77887900000000	0.00000000000000	
21.60325600000000	-41.52155400000000	796.78892399999995	62.02172200000000	0.14636500000000	0.00000000000000	0.12168700000000	-5.19721700000000	67.45043000000000	8.46097400000000	0.36595900000000	0.00000000000000	-0.08443200000000	0.00000000000000	27.18780000000000	0.00000000000000	0.00000000000000	6.24019000000000	0.00000000000000	
21.60492000000000	-41.74301100000000	793.83384300000000	61.82633900000000	0.14565800000000	0.00000000000000	0.12160200000000	-5.26580700000000	74.08813100000000	8.88840100000000	0.37112200000000	0.00000000000000	-0.08474800000000	0.00000000000000	27.05118100000000	0.00000000000000	0.00000000000000	6.64314100000000	0.00000000000000	
21.60658400000000	-41.97457300000000	790.74537499999997	61.60314000000000	0.14496500000000	0.00000000000000	0.12151200000000	-5.23731900000000	80.56744900000000	9.22036800000000	0.37600000000000	0.00000000000000	-0.08503400000000	0.00000000000000	26.91139100000000	0.00000000000000	0.00000000000000	6.98572700000000	0.00000000000000	
21.60825400000000	-42.21650000000000	787.52445799999998	61.35188200000000	0.14428600000000	0.00000000000000	0.12141800000000	-5.11466800000000	86.89015100000000	9.46021500000000	0.38062200000000	0.00000000000000	-0.08529400000000	0.00000000000000	26.76861500000000	0.00000000000000	0.00000000000000	7.26902600000000	0.00000000000000	
21.60992100000000	-42.46901500000000	784.17210499999999	61.07237500000000	0.14362200000000	0.00000000000000	0.12131800000000	-4.90324400000000	93.07629000000000	9.61451600000000	0.38501100000000	0.00000000000000	-0.08553300000000	0.00000000000000	26.62304100000000	0.00000000000000	0.00000000000000	7.49662300000000	0.00000000000000	
21.61158100000000	-42.73230800000000	780.68939200000000	60.76449100000000	0.14297200000000	0.00000000000000	0.12121400000000	-4.61010200000000	99.15968599999999	9.69207200000000	0.38918700000000	0.00000000000000	-0.08575400000000	0.00000000000000	26.47485600000000	0.00000000000000	0.00000000000000	7.67392500000000	0.00000000000000	
21.61324800000000	-43.00653100000000	777.07745100000000	60.42815700000000	0.14233900000000	0.00000000000000	0.12110500000000	-4.24316200000000	105.18307400000000	9.70289600000000	0.39316700000000	0.00000000000000	-0.08595900000000	0.00000000000000	26.32424300000000	0.00000000000000	0.00000000000000	7.80744100000000	0.00000000000000	
21.61491800000000	-43.29179600000000	773.33745999999996	60.06336100000000	0.14172100000000	0.00000000000000	0.12099100000000	-3.81048700000000	111.19335100000001	9.65727600000000	0.39696500000000	0.00000000000000	-0.08615100000000	0.00000000000000	26.17138400000000	0.00000000000000	0.00000000000000	7.90409000000000	0.00000000000000	
21.61658400000000	-43.58817100000000	769.47063800000001	59.67014800000000	0.14112000000000	0.00000000000000	0.12087100000000	-3.31966600000000	117.23730200000000	9.56497300000000	0.40059200000000	0.00000000000000	-0.08633200000000	0.00000000000000	26.01645600000000	0.00000000000000	0.00000000000000	7.97059800000000	0.00000000000000	
21.61824700000000	-43.89568300000000	765.47823400000004	59.24862400000000	0.14053600000000	0.00000000000000	0.12074700000000	-2.77735500000000	123.35805000000001	9.43460300000000	0.40405900000000	0.00000000000000	-0.08650300000000	0.00000000000000	25.85963200000000	0.00000000000000	0.00000000000000	8.01300400000000	0.00000000000000	
21.61991900000000	-44.21431100000000	761.36152000000004	58.79895400000000	0.13996800000000	0.00000000000000	0.12061700000000	-2.18897100000000	129.59237600000000	9.27321100000000	0.40737600000000	0.00000000000000	-0.08666700000000	0.00000000000000	25.70107900000000	0.00000000000000	0.00000000000000	8.03631100000000	0.00000000000000	
21.62158100000000	-44.54398800000000	757.12178500000005	58.32136000000000	0.13941800000000	0.00000000000000	0.12048100000000	-1.55853800000000	135.96896500000000	9.08603800000000	0.41054900000000	0.00000000000000	-0.08682300000000	0.00000000000000	25.54095600000000	0.00000000000000	0.00000000000000	8.04427200000000	0.00000000000000	
21.62325000000000	-44.88459500000000	752.76032599999996	57.81612400000000	0.13888400000000	0.00000000000000	0.12034100000000	-0.88866500000000	142.50754499999999	8.87647000000000	0.41358500000000	0.00000000000000	-0.08697300000000	0.00000000000000	25.37941700000000	0.00000000000000	0.00000000000000	8.03930800000000	0.00000000000000	
21.62491500000000	-45.23596300000000	748.27844400000004	57.28358600000000	0.13836700000000	0.00000000000000	0.12019500000000	-0.18065100000000	149.21881099999999	8.64612700000000	0.41649100000000	0.00000000000000	-0.08711900000000	0.00000000000000	25.21660400000000	0.00000000000000	0.00000000000000	8.02254500000000	0.00000000000000	
21.62658200000000	-45.59786600000000	743.67743299999995	56.72414100000000	0.13786700000000	0.00000000000000	0.12004300000000	0.56533800000000	156.10501800000000	8.39507800000000	0.41927100000000	0.00000000000000	-0.08726100000000	0.00000000000000	25.05265300000000	0.00000000000000	0.00000000000000	7.99394100000000	0.00000000000000	
21.62825600000000	-45.97002600000000	738.95857699999999	56.13824200000000	0.13738400000000	0.00000000000000	0.11988700000000	1.35002700000000	163.16104799999999	8.12212700000000	0.42193100000000	0.00000000000000	-0.08739900000000	0.00000000000000	24.88768800000000	0.00000000000000	0.00000000000000	7.95248300000000	0.00000000000000	
21.62992000000000	-46.35210700000000	734.12314400000002	55.52639500000000	0.13691700000000	0.00000000000000	0.11972500000000	2.17476200000000	170.37580700000001	7.82514200000000	0.42447300000000	0.00000000000000	-0.08753400000000	0.00000000000000	24.72182300000000	0.00000000000000	0.00000000000000	7.89642100000000	0.00000000000000	
21.63158500000000	-46.74371100000000	729.17237999999998	54.88916100000000	0.13646600000000	0.00000000000000	0.11955800000000	3.04124200000000	177.73377600000001	7.50140000000000	0.42690300000000	0.00000000000000	-0.08766700000000	0.00000000000000	24.55516100000000	0.00000000000000	0.00000000000000	7.82351800000000	0.00000000000000	
21.63326500000000	-47.14438300000000	724.10750700000006	54.22715200000000	0.13603000000000	0.00000000000000	0.11938600000000	3.95126300000000	185.21657300000001	7.14791200000000	0.42922300000000	0.00000000000000	-0.08779900000000	0.00000000000000	24.38779400000000	0.00000000000000	0.00000000000000	7.73129600000000	0.00000000000000	
21.63492100000000	-47.55360600000000	718.92971199999999	53.54103100000000	0.13561000000000	0.00000000000000	0.11920800000000	4.90649400000000	192.80441500000001	6.76170800000000	0.43143500000000	0.00000000000000	-0.08792900000000	0.00000000000000	24.21980000000000	0.00000000000000	0.00000000000000	7.61725500000000	0.00000000000000	
21.63658700000000	-47.97080000000000	713.64014999999995	52.83150900000000	0.13520300000000	0.00000000000000	0.11902600000000	5.90830500000000	200.47738400000000	6.34007600000000	0.43354400000000	0.00000000000000	-0.08805800000000	0.00000000000000	24.05124500000000	0.00000000000000	0.00000000000000	7.47906300000000	0.00000000000000	
21.63825400000000	-48.39532000000000	708.23993800000005	52.09934400000000	0.13481100000000	0.00000000000000	0.11883900000000	6.95763200000000	208.21645400000000	5.88073600000000	0.43555000000000	0.00000000000000	-0.08818600000000	0.00000000000000	23.88218500000000	0.00000000000000	0.00000000000000	7.31469400000000	0.00000000000000	
